Coordinates
version=1
nRows=31
nColumns=38
inDegrees=no

Units are S.I. units (second, meters, Newtons, ...)
If the header above contains a line with 'inDegrees', this indicates whether rotational values are in degrees (yes) or radians (no).

endheader
time	pelvis_tilt	pelvis_list	pelvis_rotation	pelvis_tx	pelvis_ty	pelvis_tz	hip_flexion_r	hip_adduction_r	hip_rotation_r	knee_angle_r	ankle_angle_r	subtalar_angle_r	mtp_angle_r	hip_flexion_l	hip_adduction_l	hip_rotation_l	knee_angle_l	ankle_angle_l	subtalar_angle_l	mtp_angle_l	lumbar_extension	lumbar_bending	lumbar_rotation	arm_flex_r	arm_add_r	arm_rot_r	elbow_flex_r	pro_sup_r	wrist_flex_r	wrist_dev_r	arm_flex_l	arm_add_l	arm_rot_l	elbow_flex_l	pro_sup_l	wrist_flex_l	wrist_dev_l
1.39	-0.19579	-0.122	0.0636447	0.871161	0.939002	-0.314263	1.0609	-0.00595736	-0.332954	-0.835784	0.49485	0.1	-0.00419479	-0.225447	-0.176029	-0.147067	-0.673699	-0.246882	0.1	-0.00818598	-0.0491351	0.140861	-0.207216	-1.14294	-0.255736	-0.206348	1.70557	1.54808	0.0133049	-0.0278198	0.161717	-0.58919	0.138834	2.36168	2.03069	0.00417504	-0.00403576
1.4	-0.190118	-0.106476	0.0564555	0.872326	0.93842	-0.31462	1.01323	-0.00605328	-0.357817	-0.720498	0.50303	0.1	-0.00419479	-0.213494	-0.157491	-0.116934	-0.778737	-0.276332	0.1	-0.00818598	-0.0584484	0.126759	-0.197216	-1.12925	-0.257861	-0.197235	1.71944	1.55202	0.0133049	-0.0278198	0.132452	-0.582164	0.144635	2.35588	2.03965	0.00417504	-0.00403576
1.41	-0.181482	-0.0917356	0.0469506	0.873643	0.937064	-0.314644	0.962714	-0.00378287	-0.379609	-0.629644	0.497265	0.1	-0.00419479	-0.196552	-0.142069	-0.0955265	-0.900008	-0.28604	0.1	-0.00818598	-0.0704596	0.113067	-0.182598	-1.11012	-0.264695	-0.186798	1.73461	1.55412	0.0133049	-0.0278198	0.0954886	-0.575376	0.146078	2.3387	2.04878	0.00417504	-0.00403576
1.42	-0.170905	-0.0794811	0.0346745	0.875022	0.934828	-0.314231	0.912675	0.00197747	-0.396336	-0.566595	0.477937	0.1	-0.00419479	-0.174929	-0.132549	-0.0854037	-1.03271	-0.280631	0.1	-0.00818598	-0.083873	0.101501	-0.162655	-1.08596	-0.275932	-0.175727	1.75038	1.55397	0.0133049	-0.0278198	0.0522545	-0.568431	0.143443	2.31088	2.05856	0.00417504	-0.00403576
1.43	-0.159613	-0.0711467	0.0193643	0.8763	0.931629	-0.313348	0.866194	0.0120594	-0.406369	-0.53293	0.448011	0.1	-0.00419479	-0.148114	-0.130877	-0.0866049	-1.17222	-0.264544	0.1	-0.00818598	-0.0975003	0.093525	-0.136935	-1.05675	-0.291099	-0.164564	1.7656	1.55165	0.0133049	-0.0278198	0.00465877	-0.560823	0.137227	2.27357	2.06989	0.00417504	-0.00403576
1.44	-0.148793	-0.0677274	0.00104052	0.877269	0.927453	-0.312044	0.825679	0.026846	-0.408736	-0.528308	0.413109	0.1	-0.00419479	-0.114936	-0.137862	-0.0968656	-1.31438	-0.241501	0.1	-0.00818598	-0.110492	0.0901541	-0.105383	-1.02199	-0.309648	-0.153557	1.77883	1.54759	0.0133049	-0.0278198	-0.045161	-0.551966	0.127989	2.22829	2.08401	0.00417504	-0.00403576
1.45	-0.139391	-0.0696421	-0.0199425	0.877722	0.922488	-0.310457	0.792462	0.0461816	-0.403237	-0.550423	0.380846	0.1	-0.00419479	-0.0738603	-0.153084	-0.112329	-1.45548	-0.214348	0.1	-0.00818598	-0.122464	0.0918147	-0.0684599	-0.980829	-0.331027	-0.142588	1.78857	1.54255	0.0133049	-0.0278198	-0.0951514	-0.541271	0.116191	2.17689	2.10222	0.00417504	-0.00403576
1.46	-0.13196	-0.0766575	-0.0428794	0.87749	0.917276	-0.308775	0.766482	0.0693634	-0.390325	-0.594952	0.359279	0.1	-0.00419479	-0.0233344	-0.174969	-0.12848	-1.59219	-0.185099	0.1	-0.00818598	-0.133473	0.0982598	-0.0272118	-0.932192	-0.354727	-0.131167	1.79358	1.53743	0.0133049	-0.0278198	-0.143653	-0.528241	0.102089	2.12152	2.12567	0.00417504	-0.00403576
1.47	-0.126615	-0.0878923	-0.0667157	0.876443	0.912569	-0.307148	0.74619	0.0950946	-0.371153	-0.655732	0.354926	0.1	-0.00419479	0.0378522	-0.20096	-0.141039	-1.7214	-0.155019	0.1	-0.00818598	-0.143864	0.108542	0.0167105	-0.875129	-0.380289	-0.118532	1.79323	1.53309	0.0133049	-0.0278198	-0.18964	-0.512582	0.085703	2.06452	2.15499	0.00417504	-0.00403576
1.48	-0.123132	-0.10186	-0.0900812	0.874493	0.908799	-0.305623	0.728806	0.121483	-0.347487	-0.725297	0.371038	0.1	-0.00419479	0.110287	-0.227764	-0.146661	-1.84011	-0.124733	0.1	-0.00818598	-0.154038	0.121071	0.0611174	-0.80912	-0.407254	-0.103823	1.78775	1.53017	0.0133049	-0.0278198	-0.232804	-0.494306	0.0668875	2.00838	2.19014	0.00417504	-0.00403576
1.49	-0.121112	-0.116551	-0.111384	0.871668	0.905918	-0.304289	0.710944	0.146118	-0.321513	-0.795873	0.406963	0.1	-0.00419479	0.193764	-0.251687	-0.143416	-1.94537	-0.0943126	0.1	-0.00818598	-0.164215	0.133775	0.103489	-0.734371	-0.435089	-0.0863162	1.77839	1.52898	0.0133049	-0.0278198	-0.27347	-0.473785	0.0454743	1.95546	2.23029	0.00417504	-0.00403576
1.5	-0.120115	-0.129623	-0.129013	0.868121	0.90376	-0.303405	0.689375	0.166312	-0.295503	-0.860484	0.45873	0.1	-0.00419479	0.287222	-0.269077	-0.131009	-2.03441	-0.0634809	0.1	-0.00818598	-0.17426	0.144361	0.141335	-0.65196	-0.463112	-0.0656473	1.7673	1.5294	0.0133049	-0.0278198	-0.31235	-0.451758	0.0214572	1.90784	2.27377	0.00417504	-0.00403576
1.51	-0.11976	-0.138791	-0.141632	0.864107	0.902292	-0.303175	0.661631	0.179536	-0.271359	-0.91376	0.520286	0.1	-0.00419479	0.388736	-0.276865	-0.110761	-2.10474	-0.0318763	0.1	-0.00818598	-0.183678	0.150597	0.17263	-0.563806	-0.49049	-0.0419595	1.75727	1.53094	0.0133049	-0.0278198	-0.350273	-0.429254	-0.00486289	1.86715	2.31787	0.00417504	-0.00403576
1.52	-0.119794	-0.142191	-0.148478	0.859907	0.901588	-0.303514	0.626242	0.183943	-0.250245	-0.952235	0.584787	0.1	-0.00419479	0.49556	-0.273134	-0.0853309	-2.15434	0.000729748	0.1	-0.00818598	-0.191773	0.150647	0.196202	-0.472439	-0.516332	-0.0158967	1.7512	1.53282	0.0133049	-0.0278198	-0.387998	-0.407459	-0.0328518	1.83447	2.35897	0.00417504	-0.00403576
1.53	-0.120073	-0.138695	-0.149562	0.855804	0.901722	-0.304168	0.582628	0.178767	-0.232475	-0.974154	0.64547	0.1	-0.00419479	0.604244	-0.257546	-0.058213	-2.18184	0.0343824	0.1	-0.00818598	-0.197876	0.14333	0.211945	-0.380618	-0.539855	0.0115601	1.75162	1.53404	0.0133049	-0.0278198	-0.42615	-0.387523	-0.0616514	1.81042	2.39269	0.00417504	-0.00403576
1.54	-0.120478	-0.128037	-0.14571	0.852087	0.902726	-0.304962	0.530835	0.164442	-0.217671	-0.97904	0.696128	0.1	-0.00419479	0.710877	-0.231464	-0.0331157	-2.18657	0.0690462	0.1	-0.00818598	-0.201533	0.128284	0.220783	-0.290942	-0.560535	0.0393305	1.76021	1.53353	0.0133049	-0.0278198	-0.465234	-0.370358	-0.0903606	1.79518	2.4147	0.00417504	-0.00403576
1.55	-0.120873	-0.110833	-0.138417	0.84901	0.904599	-0.30579	0.471298	0.142406	-0.205147	-0.967282	0.731431	0.1	-0.00419479	0.81144	-0.197694	-0.0133416	-2.16861	0.104767	0.1	-0.00818598	-0.202586	0.105972	0.224424	-0.205571	-0.578202	0.0664273	1.77758	1.53042	0.0133049	-0.0278198	-0.505626	-0.356488	-0.118184	1.78856	2.42158	0.00417504	-0.00403576
1.56	-0.121138	-0.0884501	-0.12953	0.846761	0.907351	-0.306525	0.404742	0.114753	-0.194285	-0.939871	0.747118	0.1	-0.00419479	0.902223	-0.159941	-0.00128574	-2.12873	0.141714	0.1	-0.00818598	-0.20113	0.0776023	0.225	-0.126134	-0.593037	0.0920309	1.80326	1.52426	0.0133049	-0.0278198	-0.547499	-0.345991	-0.144469	1.78995	2.41174	0.00417504	-0.00403576
1.57	-0.121225	-0.0627605	-0.120871	0.845452	0.910996	-0.307061	0.332234	0.083843	-0.184865	-0.898344	0.740228	0.1	-0.00419479	0.980231	-0.122134	0.00185734	-2.06829	0.180103	0.1	-0.00818598	-0.19739	0.0450184	0.224668	-0.0537912	-0.605504	0.115468	1.83595	1.51524	0.0133049	-0.0278198	-0.590722	-0.338546	-0.168658	1.79825	2.38582	0.00417504	-0.00403576
1.58	-0.12119	-0.0359298	-0.113898	0.845122	0.915511	-0.307367	0.255317	0.0519926	-0.17716	-0.844884	0.709259	0.1	-0.00419479	1.04347	-0.0877958	-0.00386672	-1.98898	0.219989	0.1	-0.00818598	-0.191576	0.0105158	0.225259	0.0106441	-0.616256	0.136166	1.87384	1.5042	0.0133049	-0.0278198	-0.634791	-0.333545	-0.190236	1.81197	2.34658	0.00417504	-0.00403576
1.59	-0.121256	-0.0101632	-0.109484	0.845725	0.920783	-0.307461	0.176103	0.0212866	-0.171784	-0.782528	0.654282	0.1	-0.00419479	1.09107	-0.0595883	-0.0173846	-1.89274	0.261081	0.1	-0.00818598	-0.18381	-0.0233962	0.228021	0.0665972	-0.626012	0.153631	1.91497	1.49246	0.0133049	-0.0278198	-0.678843	-0.330233	-0.208751	1.82937	2.29844	0.00417504	-0.00403576
1.6	-0.12181	0.0125328	-0.107875	0.84714	0.926617	-0.307351	0.0973053	-0.00652209	-0.169335	-0.715365	0.577029	0.1	-0.00419479	1.12322	-0.0391021	-0.0370076	-1.78159	0.302743	0.1	-0.00818598	-0.174124	-0.0542729	0.233518	0.113667	-0.635451	0.167449	1.95753	1.48143	0.0133049	-0.0278198	-0.721752	-0.327826	-0.223897	1.84867	2.24668	0.00417504	-0.00403576
1.61	-0.123341	0.0305424	-0.108809	0.849179	0.932761	-0.307048	0.022119	-0.0300355	-0.169944	-0.648566	0.480857	0.1	-0.00419479	1.14098	-0.0268835	-0.0609066	-1.65766	0.344156	0.1	-0.00818598	-0.162502	-0.0800158	0.24167	0.151583	-0.645108	0.177294	2.00005	1.4723	0.0133049	-0.0278198	-0.762277	-0.325605	-0.235621	1.86829	2.19652	0.00417504	-0.00403576
1.62	-0.126342	0.042763	-0.111715	0.851591	0.938912	-0.30657	-0.0460398	-0.0482341	-0.172988	-0.588169	0.370694	0.1	-0.00419479	1.14605	-0.0226099	-0.087495	-1.52325	0.38452	0.1	-0.00818598	-0.148986	-0.0991023	0.251903	0.180185	-0.655311	0.182924	2.04143	1.46592	0.0133049	-0.0278198	-0.799208	-0.322976	-0.244184	1.88701	2.15235	0.00417504	-0.00403576
1.63	-0.13118	0.0486597	-0.11593	0.854108	0.944751	-0.305939	-0.103938	-0.060504	-0.177093	-0.540594	0.25286	0.1	-0.00419479	1.14039	-0.025333	-0.115623	-1.38104	0.423186	0.1	-0.00818598	-0.133806	-0.110711	0.263335	0.199396	-0.666155	0.184195	2.08089	1.46274	0.0133049	-0.0278198	-0.831492	-0.319501	-0.250148	1.90408	2.11717	0.00417504	-0.00403576
1.64	-0.137925	0.0482526	-0.120845	0.856508	0.949998	-0.305182	-0.148996	-0.0666502	-0.180399	-0.511943	0.134619	0.1	-0.00419479	1.12599	-0.0337413	-0.1446	-1.23427	0.45974	0.1	-0.00818598	-0.117504	-0.114741	0.274949	0.209215	-0.677516	0.181086	2.11793	1.46288	0.0133049	-0.0278198	-0.858325	-0.314934	-0.254267	1.91917	2.09233	0.00417504	-0.00403576
1.65	-0.146215	0.0420398	-0.125956	0.858652	0.954474	-0.304322	-0.179707	-0.0669164	-0.181065	-0.507255	0.0235072	0.1	-0.00419479	1.10459	-0.0463451	-0.174023	-1.08677	0.493879	0.1	-0.00818598	-0.101018	-0.111742	0.28571	0.209712	-0.6891	0.17374	2.15217	1.46614	0.0133049	-0.0278198	-0.87919	-0.309247	-0.257324	1.93235	2.07765	0.00417504	-0.00403576
1.66	-0.15523	0.0308952	-0.130845	0.860474	0.958125	-0.303377	-0.195901	-0.0619936	-0.177819	-0.529872	-0.0735906	0.1	-0.00419479	1.07753	-0.0615785	-0.203523	-0.942988	0.525113	0.1	-0.00818598	-0.0856643	-0.102799	0.294634	0.201021	-0.700511	0.162498	2.18329	1.47204	0.0133049	-0.0278198	-0.893865	-0.302676	-0.25997	1.94393	2.07173	0.00417504	-0.00403576
1.67	-0.163729	0.0159811	-0.135114	0.861969	0.960983	-0.302391	-0.198745	-0.052985	-0.170317	-0.581002	-0.151524	0.1	-0.00419479	1.04572	-0.0778886	-0.232581	-0.807678	0.552532	0.1	-0.00818598	-0.072976	-0.0893795	0.300822	0.183335	-0.711315	0.147884	2.21094	1.47991	0.0133049	-0.0278198	-0.902395	-0.295745	-0.262595	1.95434	2.07245	0.00417504	-0.00403576
1.68	-0.170305	-0.00132775	-0.138317	0.863167	0.963115	-0.301463	-0.190483	-0.0413643	-0.159283	-0.659606	-0.207789	0.1	-0.00419479	1.00979	-0.0937614	-0.260405	-0.685549	0.574633	0.1	-0.00818598	-0.0644378	-0.0731928	0.303484	0.156916	-0.72108	0.130559	2.23463	1.48906	0.0133049	-0.0278198	-0.905038	-0.28927	-0.265286	1.96401	2.07743	0.00417504	-0.00403576
1.69	-0.173678	-0.0195075	-0.139936	0.864123	0.964563	-0.300714	-0.173916	-0.0289053	-0.146374	-0.762651	-0.242901	0.1	-0.00419479	0.970283	-0.107716	-0.285869	-0.580769	0.589365	0.1	-0.00818598	-0.0611439	-0.0560407	0.301957	0.122108	-0.729389	0.111224	2.25373	1.499	0.0133049	-0.0278198	-0.90219	-0.284306	-0.267845	1.97327	2.08438	0.00417504	-0.00403576
